<svg width="24" height="24" viewBox="0 0 24 24" fill="none" xmlns="http://www.w3.org/2000/svg">
<path d="M7.58957 22.0539C11.2289 22.0539 14.1791 19.1036 14.1791 15.4643C14.1791 11.825 11.2289 8.87473 7.58957 8.87473C3.95025 8.87473 1 11.825 1 15.4643C1 19.1036 3.95025 22.0539 7.58957 22.0539Z" fill="#04E061"/>
<path d="M19.0184 21.2233C21.2173 21.2233 22.9998 19.4408 22.9998 17.2419C22.9998 15.0431 21.2173 13.2606 19.0184 13.2606C16.8196 13.2606 15.0371 15.0431 15.0371 17.2419C15.0371 19.4408 16.8196 21.2233 19.0184 21.2233Z" fill="#FF4053"/>
<path d="M8.84945 8.01964C10.2104 8.01964 11.3136 6.91638 11.3136 5.55544C11.3136 4.1945 10.2104 3.09125 8.84945 3.09125C7.48851 3.09125 6.38525 4.1945 6.38525 5.55544C6.38525 6.91638 7.48851 8.01964 8.84945 8.01964Z" fill="#965EEB"/>
<path d="M17.4708 12.4025C20.4296 12.4025 22.8282 10.0038 22.8282 7.04498C22.8282 4.08612 20.4296 1.6875 17.4708 1.6875C14.5119 1.6875 12.1133 4.08612 12.1133 7.04498C12.1133 10.0038 14.5119 12.4025 17.4708 12.4025Z" fill="#00AAFF"/>
</svg>
